<svg width="330" height="101" viewBox="0 0 330 101" fill="none" xmlns="http://www.w3.org/2000/svg">
<path d="M50 0.228516C77.6142 0.228516 100 22.6143 100 50.2285C99.9998 77.8426 77.6141 100.229 50 100.229C22.3859 100.229 0.000216498 77.8426 0 50.2285C0 22.6143 22.3858 0.228516 50 0.228516ZM169.097 34.7217L193.648 10.1699L202.439 18.9609L177.888 43.5127H212.609V55.9443H177.888L202.439 80.4961L193.649 89.2871L169.097 64.7344V99.4561H156.665V64.7354L132.113 89.2871L123.322 80.4961L147.874 55.9443H113.152V43.5127H147.874L123.322 18.9609L132.113 10.1699L156.665 34.7217V0H169.097V34.7217ZM225.112 26.2031C227.323 10.4719 241.664 -0.102311 257.708 2.15234C265.973 3.31395 273.443 7.94205 278.295 14.3701C279.033 15.348 280.453 15.5472 281.433 14.8105C287.869 9.96898 296.325 7.5796 304.59 8.74121C320.633 10.9962 331.504 25.1136 329.293 40.8447C326.577 60.17 306.656 73.4121 276.477 93.499L269.46 98.21C268.613 98.7786 267.473 98.6181 266.815 97.8379L261.37 91.376C237.897 63.7486 222.397 45.5285 225.112 26.2031Z" fill="white"/>
</svg>
