<svg width="731" height="114" viewBox="0 0 731 114" fill="none" xmlns="http://www.w3.org/2000/svg">
<path d="M679.654 66.7983V111.603H654.643V33.0411H678.426V47.4647H679.296C681.035 42.6568 684.001 38.889 688.195 36.1611C692.389 33.3992 697.385 32.0182 703.181 32.0182C708.705 32.0182 713.496 33.2628 717.554 35.7519C721.646 38.207 724.817 41.6509 727.067 46.0837C729.352 50.4824 730.477 55.6312 730.443 61.5302V111.603H705.432V66.4403C705.466 62.0757 704.358 58.6659 702.107 56.2109C699.891 53.7558 696.805 52.5282 692.85 52.5282C690.224 52.5282 687.905 53.1079 685.894 54.2673C683.916 55.3925 682.381 57.0122 681.29 59.1263C680.233 61.2403 679.688 63.7977 679.654 66.7983Z" fill="black"/>
<path d="M618.033 111.603V33.0412H643.044V111.603H618.033ZM630.565 23.8858C627.052 23.8858 624.035 22.7265 621.511 20.4078C618.988 18.055 617.727 15.2248 617.727 11.9173C617.727 8.64389 618.988 5.84784 621.511 3.52917C624.035 1.17639 627.052 0 630.565 0C634.111 0 637.128 1.17639 639.618 3.52917C642.141 5.84784 643.402 8.64389 643.402 11.9173C643.402 15.2248 642.141 18.055 639.618 20.4078C637.128 22.7265 634.111 23.8858 630.565 23.8858Z" fill="black"/>
<path d="M560.108 112.933C555.095 112.933 550.645 112.098 546.758 110.427C542.905 108.722 539.853 106.165 537.603 102.755C535.386 99.311 534.278 94.9976 534.278 89.8146C534.278 85.4501 535.046 81.7675 536.58 78.7668C538.114 75.7662 540.228 73.3282 542.922 71.4528C545.616 69.5774 548.719 68.1623 552.231 67.2075C555.743 66.2187 559.494 65.5538 563.483 65.2128C567.95 64.8036 571.548 64.3774 574.276 63.9341C577.003 63.4567 578.981 62.7918 580.209 61.9394C581.47 61.0528 582.101 59.8082 582.101 58.2056V57.9499C582.101 55.3243 581.197 53.2955 579.39 51.8633C577.583 50.4312 575.145 49.7151 572.076 49.7151C568.769 49.7151 566.109 50.4312 564.097 51.8633C562.085 53.2955 560.807 55.2732 560.261 57.7964L537.194 56.9781C537.876 52.2043 539.632 47.942 542.462 44.1912C545.326 40.4063 549.247 37.4398 554.226 35.2916C559.238 33.1093 565.257 32.0182 572.281 32.0182C577.293 32.0182 581.913 32.6149 586.142 33.8083C590.37 34.9677 594.052 36.6726 597.19 38.9231C600.327 41.1395 602.747 43.8673 604.452 47.1066C606.191 50.346 607.061 54.0456 607.061 58.2056V111.603H583.533V100.658H582.919C581.521 103.318 579.731 105.568 577.549 107.409C575.401 109.251 572.86 110.632 569.928 111.552C567.03 112.473 563.756 112.933 560.108 112.933ZM567.831 96.5661C570.525 96.5661 572.946 96.0205 575.094 94.9294C577.276 93.8382 579.015 92.3379 580.311 90.4284C581.607 88.4848 582.254 86.2343 582.254 83.6769V76.2094C581.538 76.5845 580.669 76.9255 579.646 77.2324C578.657 77.5393 577.566 77.8291 576.373 78.1019C575.179 78.3747 573.952 78.6134 572.69 78.818C571.428 79.0225 570.218 79.2101 569.058 79.3806C566.706 79.7557 564.694 80.3353 563.023 81.1196C561.386 81.9038 560.125 82.9268 559.238 84.1884C558.386 85.416 557.959 86.8822 557.959 88.5871C557.959 91.1785 558.88 93.1562 560.721 94.5202C562.597 95.8841 564.967 96.5661 567.831 96.5661Z" fill="black"/>
<path d="M475.726 66.7984V111.603H450.715V6.85376H474.908V47.4647H475.777C477.55 42.6228 480.448 38.8379 484.472 36.11C488.53 33.3822 493.491 32.0182 499.356 32.0182C504.88 32.0182 509.688 33.2458 513.779 35.7008C517.871 38.1218 521.042 41.5487 523.293 45.9814C525.577 50.4142 526.703 55.5971 526.669 61.5302V111.603H501.658V66.4404C501.692 62.0758 500.601 58.666 498.384 56.2109C496.168 53.7558 493.048 52.5283 489.024 52.5283C486.399 52.5283 484.08 53.108 482.068 54.2673C480.09 55.3925 478.539 57.0122 477.414 59.1263C476.323 61.2404 475.76 63.7977 475.726 66.7984Z" fill="black"/>
<path d="M405.769 113.087C397.484 113.087 390.374 111.382 384.441 107.972C378.542 104.562 374.007 99.8224 370.836 93.753C367.665 87.6494 366.079 80.5911 366.079 72.578C366.079 64.5308 367.665 57.4725 370.836 51.403C374.041 45.2994 378.593 40.5427 384.492 37.1329C390.425 33.7231 397.501 32.0182 405.718 32.0182C412.981 32.0182 419.306 33.331 424.694 35.9565C430.116 38.5821 434.344 42.2988 437.378 47.1066C440.447 51.8804 442.067 57.4895 442.237 63.9341H418.863C418.386 59.9105 417.022 56.7564 414.771 54.4718C412.555 52.1873 409.657 51.045 406.076 51.045C403.178 51.045 400.638 51.8633 398.455 53.5C396.273 55.1027 394.568 57.4895 393.341 60.6607C392.147 63.7977 391.55 67.6849 391.55 72.3223C391.55 76.9596 392.147 80.8809 393.341 84.0861C394.568 87.2573 396.273 89.6612 398.455 91.2979C400.638 92.9005 403.178 93.7018 406.076 93.7018C408.395 93.7018 410.441 93.2074 412.214 92.2185C414.021 91.2297 415.504 89.7805 416.664 87.871C417.823 85.9274 418.556 83.5746 418.863 80.8127H442.237C441.999 87.2914 440.379 92.9517 437.378 97.7936C434.412 102.636 430.235 106.403 424.847 109.097C419.494 111.757 413.135 113.087 405.769 113.087Z" fill="black"/>
<path d="M323.357 113.087C315.139 113.087 308.047 111.467 302.079 108.228C296.146 104.954 291.577 100.3 288.372 94.2644C285.201 88.195 283.615 80.9832 283.615 72.6291C283.615 64.5138 285.218 57.4213 288.423 51.3519C291.628 45.2483 296.146 40.5086 301.977 37.1329C307.808 33.7231 314.679 32.0182 322.589 32.0182C328.182 32.0182 333.296 32.8877 337.934 34.6267C342.571 36.3657 346.578 38.9401 349.953 42.3499C353.329 45.7598 355.955 49.9709 357.83 54.9833C359.705 59.9617 360.643 65.6731 360.643 72.1177V78.3576H292.361V63.8318H337.371C337.337 61.1721 336.706 58.8023 335.479 56.7223C334.251 54.6423 332.563 53.0227 330.415 51.8633C328.301 50.6699 325.863 50.0732 323.101 50.0732C320.305 50.0732 317.799 50.704 315.582 51.9656C313.366 53.1932 311.61 54.881 310.314 57.0292C309.018 59.1433 308.336 61.5472 308.268 64.241V79.0225C308.268 82.2278 308.899 85.0409 310.161 87.4618C311.422 89.8487 313.212 91.7071 315.531 93.0369C317.85 94.3667 320.612 95.0316 323.817 95.0316C326.033 95.0316 328.045 94.7248 329.852 94.111C331.66 93.4972 333.211 92.5936 334.507 91.4002C335.803 90.2067 336.774 88.7405 337.422 87.0015L360.387 87.6664C359.433 92.8153 357.336 97.2992 354.096 101.118C350.891 104.903 346.68 107.853 341.463 109.967C336.246 112.047 330.21 113.087 323.357 113.087Z" fill="black"/>
<path d="M231.226 90.9911L231.328 61.1722H234.806L256.902 33.0412H285.237L252.401 73.3452H245.803L231.226 90.9911ZM208.67 111.603V6.85376H233.681V111.603H208.67ZM257.464 111.603L236.903 78.9714L253.373 61.2233L286.363 111.603H257.464Z" fill="black"/>
<path d="M150.745 112.933C145.733 112.933 141.283 112.098 137.396 110.427C133.543 108.722 130.491 106.165 128.241 102.755C126.024 99.311 124.916 94.9976 124.916 89.8146C124.916 85.4501 125.683 81.7675 127.218 78.7668C128.752 75.7662 130.866 73.3282 133.56 71.4528C136.254 69.5774 139.357 68.1623 142.869 67.2075C146.381 66.2187 150.132 65.5538 154.121 65.2128C158.588 64.8036 162.185 64.3774 164.913 63.9341C167.641 63.4567 169.619 62.7918 170.846 61.9394C172.108 61.0528 172.739 59.8082 172.739 58.2056V57.9499C172.739 55.3243 171.835 53.2955 170.028 51.8633C168.221 50.4312 165.783 49.7151 162.714 49.7151C159.406 49.7151 156.747 50.4312 154.735 51.8633C152.723 53.2955 151.444 55.2732 150.899 57.7964L127.831 56.9781C128.513 52.2043 130.269 47.942 133.1 44.1912C135.964 40.4063 139.885 37.4398 144.863 35.2916C149.876 33.1093 155.894 32.0182 162.918 32.0182C167.931 32.0182 172.551 32.6149 176.779 33.8083C181.008 34.9677 184.69 36.6726 187.827 38.9231C190.964 41.1395 193.385 43.8673 195.09 47.1066C196.829 50.346 197.699 54.0456 197.699 58.2056V111.603H174.171V100.658H173.557C172.159 103.318 170.369 105.568 168.187 107.409C166.038 109.251 163.498 110.632 160.566 111.552C157.667 112.473 154.394 112.933 150.745 112.933ZM158.469 96.5661C161.162 96.5661 163.583 96.0205 165.732 94.9294C167.914 93.8382 169.653 92.3379 170.949 90.4284C172.244 88.4848 172.892 86.2343 172.892 83.6769V76.2094C172.176 76.5845 171.307 76.9255 170.284 77.2324C169.295 77.5393 168.204 77.8291 167.01 78.1019C165.817 78.3747 164.589 78.6134 163.328 78.818C162.066 79.0225 160.856 79.2101 159.696 79.3806C157.343 79.7557 155.332 80.3353 153.661 81.1196C152.024 81.9038 150.762 82.9268 149.876 84.1884C149.023 85.416 148.597 86.8822 148.597 88.5871C148.597 91.1785 149.518 93.1562 151.359 94.5202C153.235 95.8841 155.604 96.5661 158.469 96.5661Z" fill="black"/>
<path d="M0 6.85376H31.3533L57.9499 71.7085H59.1774L85.774 6.85376H117.127V111.603H92.4743V47.2601H91.6048L66.4403 110.938H50.687L25.5225 46.9021H24.653V111.603H0V6.85376Z" fill="black"/>
</svg>
